# xmcd CD database file
#
# Track frame offsets:
#	150
#	14688
#	32438
#	50036
#	66389
#	81968
#	94903
#	111740
#	127434
#	145166
#	163087
#	181390
#	199722
#
# Disc length: 3292 seconds
#
# Revision: 0
# Processed by: cddbd v1.4PL0 Copyright (c) Steve Scherf et al.
# Submitted via: CDex 1.50
#
DISCID=ca0cda0d
DTITLE=Jolene's Drum - Red September
DYEAR=2001
DGENRE=Blues
TTITLE0=Brisk
TTITLE1=Red September
TTITLE2=Lavender
TTITLE3=Daddy's Home
TTITLE4=Paradise
TTITLE5=Journeys
TTITLE6=Guilty
TTITLE7=Thirty
TTITLE8=Paint a Picture
TTITLE9=Cityscape
TTITLE10=The Beehive
TTITLE11=Little Blue Van
TTITLE12=Memphis
EXTD=YEAR: 2001
EXTT0=
EXTT1=
EXTT2=
EXTT3=
EXTT4=
EXTT5=
EXTT6=
EXTT7=
EXTT8=
EXTT9=
EXTT10=
EXTT11=
EXTT12=
PLAYORDER=
